<svg width="27" height="42" xmlns="http://www.w3.org/2000/svg" xmlns:xlink="http://www.w3.org/1999/xlink" xml:space="preserve" overflow="hidden"><defs><clipPath id="clip0"><rect x="589" y="340" width="27" height="42"/></clipPath><clipPath id="clip1"><rect x="589" y="340" width="27" height="42"/></clipPath><clipPath id="clip2"><rect x="590" y="340" width="26" height="42"/></clipPath><clipPath id="clip3"><rect x="590" y="340" width="26" height="42"/></clipPath><clipPath id="clip4"><rect x="590" y="340" width="107" height="43"/></clipPath><clipPath id="clip5"><rect x="590" y="344" width="107" height="27"/></clipPath></defs><g clip-path="url(#clip0)" transform="translate(-589 -340)"><g clip-path="url(#clip1)"><g clip-path="url(#clip2)"><g clip-path="url(#clip3)"><g clip-path="url(#clip4)"><g clip-path="url(#clip5)"><path d="M61.7628 12.9549 59.9501 12.9549C59.8405 12.9549 59.7516 13.0437 59.7516 13.1534L59.7516 29.6958C59.7516 29.8054 59.8405 29.8944 59.9501 29.8944L61.7628 29.8944C61.8724 29.8944 61.9613 29.8054 61.9613 29.6958L61.9613 13.1534C61.9613 13.0437 61.8724 12.9549 61.7628 12.9549Z" fill="#4B4B4B" fill-rule="nonzero" fill-opacity="1" transform="matrix(1.00031 0 0 1 590 340)"/><path d="M85.9349 13.0232 84.0307 13.0232C83.9195 13.0232 83.8295 13.1132 83.8295 13.2243L83.8295 30.3191C83.8295 30.4302 83.9195 30.5202 84.0307 30.5202L85.9349 30.5202C86.046 30.5202 86.1359 30.4302 86.1359 30.3191L86.1359 13.2243C86.1359 13.1132 86.046 13.0232 85.9349 13.0232Z" fill="#4B4B4B" fill-rule="nonzero" fill-opacity="1" transform="matrix(1.00031 0 0 1 590 340)"/><path d="M55.3424 15.0243 53.5348 15.0243C53.4237 15.0243 53.3338 15.1144 53.3338 15.2254L53.3338 30.1971C53.3338 30.3082 53.4237 30.3983 53.5348 30.3983L55.3424 30.3983C55.4535 30.3983 55.5434 30.3082 55.5434 30.1971L55.5434 15.2254C55.5434 15.1144 55.4535 15.0243 55.3424 15.0243Z" fill="#4B4B4B" fill-rule="nonzero" fill-opacity="1" transform="matrix(1.00031 0 0 1 590 340)"/><path d="M68.1884 15.0243 66.3808 15.0243C66.2697 15.0243 66.1797 15.1144 66.1797 15.2254L66.1797 30.1971C66.1797 30.3082 66.2697 30.3983 66.3808 30.3983L68.1884 30.3983C68.2994 30.3983 68.3894 30.3082 68.3894 30.1971L68.3894 15.2254C68.3894 15.1144 68.2994 15.0243 68.1884 15.0243Z" fill="#4B4B4B" fill-rule="nonzero" fill-opacity="1" transform="matrix(1.00031 0 0 1 590 340)"/><path d="M68.285 28.191 68.285 30.029C68.285 30.1276 68.2459 30.2222 68.1762 30.2919 68.1065 30.3615 68.012 30.4007 67.9133 30.4007L53.8022 30.4007C53.7037 30.4007 53.6091 30.3615 53.5393 30.2919 53.4697 30.2222 53.4306 30.1276 53.4306 30.029L53.4306 28.191 68.285 28.191Z" fill="#4B4B4B" fill-rule="nonzero" fill-opacity="1" transform="matrix(1.00031 0 0 1 590 340)"/><path d="M98.6228 14.9402 98.6228 13.5043C98.6228 13.4495 98.5784 13.4051 98.5236 13.4051L89.896 13.4051C89.8411 13.4051 89.7967 13.4495 89.7967 13.5043L89.7967 14.9402C89.7967 14.995 89.8411 15.0394 89.896 15.0394L98.5236 15.0394C98.5784 15.0394 98.6228 14.995 98.6228 14.9402Z" fill="#4B4B4B" fill-rule="nonzero" fill-opacity="1" transform="matrix(1.00031 0 0 1 590 340)"/><path d="M106.446 13.9242 106.446 15.4823C106.446 15.5085 106.436 15.5339 106.417 15.5525 106.398 15.571 106.373 15.5815 106.347 15.5815L100.838 15.5815C100.784 15.5815 100.732 15.56 100.694 15.5219 100.655 15.4836 100.634 15.4318 100.634 15.3779L100.634 14.026C100.634 13.9721 100.655 13.9203 100.694 13.882 100.732 13.8439 100.784 13.8224 100.838 13.8224L106.347 13.8224C106.373 13.8224 106.398 13.8329 106.417 13.8515 106.436 13.87 106.446 13.8954 106.446 13.9217L106.446 13.9242Z" fill="#4B4B4B" fill-rule="nonzero" fill-opacity="1" transform="matrix(1.00031 0 0 1 590 340)"/><path d="M46.5875 15.4245C46.5544 16.2925 46.4347 18.2833 46.0249 21.4171 46.0212 21.4458 46.0238 21.475 46.0322 21.5027 46.0407 21.5304 46.0548 21.556 46.0738 21.5778 46.0927 21.5997 46.1161 21.6173 46.1423 21.6295 46.1686 21.6418 46.197 21.6483 46.2259 21.6488L48.3135 21.6488C48.3632 21.648 48.4108 21.6292 48.4478 21.5961 48.4847 21.5628 48.5085 21.5173 48.5147 21.4681 48.9194 18.3113 49.0238 16.318 49.0645 15.4397 49.0655 15.4124 49.061 15.3852 49.0512 15.3598 49.0414 15.3343 49.0265 15.3111 49.0075 15.2915 48.9884 15.2721 48.9656 15.2566 48.9404 15.2462 48.9152 15.2358 48.8881 15.2305 48.8608 15.231L46.7911 15.231C46.7387 15.2302 46.688 15.2501 46.6499 15.2862 46.6118 15.3224 46.5894 15.372 46.5875 15.4245Z" fill="#4B4B4B" fill-rule="nonzero" fill-opacity="1" transform="matrix(1.00031 0 0 1 590 340)"/><path d="M36.5776 15.427C36.6132 16.3001 36.7303 18.3062 37.1427 21.4629 37.1471 21.492 37.1452 21.5215 37.1371 21.5497 37.1291 21.5779 37.115 21.604 37.0958 21.6262 37.0768 21.6484 37.0531 21.6663 37.0265 21.6785 36.9999 21.6908 36.9709 21.6971 36.9416 21.6972L34.8388 21.6972C34.7888 21.6964 34.7408 21.6778 34.7035 21.6446 34.6661 21.6114 34.6418 21.5659 34.6351 21.5165 34.2278 18.3342 34.1133 16.3257 34.0802 15.4422 34.0791 15.4146 34.0837 15.3872 34.0936 15.3613 34.1036 15.3356 34.1186 15.3121 34.138 15.2923 34.1572 15.2725 34.1803 15.2569 34.2058 15.2464 34.2314 15.2359 34.2587 15.2305 34.2864 15.231L36.3739 15.231C36.4266 15.2309 36.4773 15.2513 36.5153 15.2879 36.5533 15.3245 36.5756 15.3742 36.5776 15.427Z" fill="#4B4B4B" fill-rule="nonzero" fill-opacity="1" transform="matrix(1.00031 0 0 1 590 340)"/><path d="M89.6109 16.5061C89.5855 16.5087 89.5618 16.5204 89.5444 16.5391 89.527 16.5579 89.5172 16.5824 89.5167 16.608L89.5167 18.2755C89.5162 18.2896 89.5188 18.3037 89.5244 18.3167 89.5298 18.3299 89.5379 18.3416 89.5483 18.3512 89.5587 18.3608 89.5711 18.3682 89.5844 18.3727 89.5979 18.3772 89.6121 18.3788 89.6262 18.3773 91.1206 18.2372 92.2228 17.1655 92.3705 15.5439 92.3715 15.5298 92.3697 15.5158 92.365 15.5026 92.3604 15.4893 92.3531 15.4771 92.3435 15.4669 92.3339 15.4566 92.3224 15.4484 92.3095 15.4428 92.2966 15.4372 92.2828 15.4344 92.2686 15.4344L90.5935 15.4344C90.5689 15.4343 90.5451 15.4433 90.5267 15.4598 90.5084 15.4763 90.4968 15.4989 90.4942 15.5235 90.3746 16.384 89.8935 16.4934 89.6109 16.5061Z" fill="#4B4B4B" fill-rule="nonzero" fill-opacity="1" transform="matrix(1.00031 0 0 1 590 340)"/><path d="M101.484 16.6436 99.7609 16.6436C99.7458 16.6438 99.7309 16.6472 99.7172 16.6537 99.7035 16.6602 99.6915 16.6696 99.6817 16.6812 99.6721 16.6929 99.6651 16.7064 99.6611 16.7211 99.6573 16.7356 99.6565 16.7509 99.6591 16.7658 100.219 19.9201 102.936 21.9082 106.673 21.9007 106.7 21.9 106.726 21.8888 106.746 21.8694 106.765 21.8499 106.776 21.8237 106.777 21.7963L106.777 20.1084C106.777 20.0814 106.766 20.0555 106.747 20.0364 106.728 20.0173 106.702 20.0066 106.675 20.0066 104.521 20.0066 102.172 19.141 101.584 16.7226 101.578 16.7003 101.565 16.6806 101.547 16.6663 101.53 16.652 101.507 16.644 101.484 16.6436Z" fill="#4B4B4B" fill-rule="nonzero" fill-opacity="1" transform="matrix(1.00031 0 0 1 590 340)"/><path d="M93.101 13.0232 91.1764 13.0232C91.1216 13.0232 91.0772 13.0677 91.0772 13.1225L91.0772 15.1311C91.0772 15.1859 91.1216 15.2303 91.1764 15.2303L93.101 15.2303C93.156 15.2303 93.2004 15.1859 93.2004 15.1311L93.2004 13.1225C93.2004 13.0677 93.156 13.0232 93.101 13.0232Z" fill="#4B4B4B" fill-rule="nonzero" fill-opacity="1" transform="matrix(1.00031 0 0 1 590 340)"/><path d="M97.2431 13.0232 95.3185 13.0232C95.2637 13.0232 95.2192 13.0677 95.2192 13.1225L95.2192 15.1311C95.2192 15.1859 95.2637 15.2303 95.3185 15.2303L97.2431 15.2303C97.298 15.2303 97.3425 15.1859 97.3425 15.1311L97.3425 13.1225C97.3425 13.0677 97.298 13.0232 97.2431 13.0232Z" fill="#4B4B4B" fill-rule="nonzero" fill-opacity="1" transform="matrix(1.00031 0 0 1 590 340)"/><path d="M105.693 15.2815C105.693 15.223 105.693 15.1721 105.693 15.1339L103.753 15.1339C103.753 15.1874 103.753 15.2535 103.753 15.335 103.77 15.9893 103.811 17.5193 102.77 18.6012 101.978 19.4235 100.68 19.8588 98.9081 19.897 98.8944 19.897 98.881 19.8998 98.8685 19.905 98.856 19.9102 98.8446 19.918 98.8351 19.9278 98.8256 19.9375 98.8181 19.949 98.8132 19.9616 98.8083 19.9743 98.8059 19.9878 98.8062 20.0014L98.8266 21.7299C98.8266 21.744 98.8294 21.7579 98.8347 21.7708 98.8401 21.7839 98.8479 21.7956 98.8579 21.8056 98.8678 21.8155 98.8796 21.8234 98.8926 21.8288 98.9055 21.8341 98.9194 21.8369 98.9335 21.8369 101.245 21.791 103.007 21.1546 104.168 19.9479 105.771 18.2754 105.713 16.1013 105.693 15.2815Z" fill="#4B4B4B" fill-rule="nonzero" fill-opacity="1" transform="matrix(1.00031 0 0 1 590 340)"/><path d="M102.151 13.0003 100.423 13.0003C100.397 13.0008 100.373 13.0112 100.354 13.0291 100.336 13.0471 100.325 13.0713 100.324 13.097 100.312 13.4899 100.162 13.8662 99.9004 14.1596 99.6387 14.453 99.2818 14.6446 98.8927 14.7008 98.8689 14.7045 98.8471 14.7164 98.8313 14.7346 98.8154 14.7528 98.8065 14.7759 98.8062 14.8001L98.8062 16.5312C98.8062 16.545 98.809 16.5587 98.8144 16.5714 98.8198 16.5841 98.8278 16.5955 98.8378 16.605 98.8478 16.6145 98.8596 16.622 98.8725 16.6268 98.8856 16.6316 98.8993 16.6338 98.9131 16.633 99.8128 16.5758 100.657 16.1796 101.277 15.5244 101.896 14.8692 102.244 14.0036 102.251 13.1021 102.251 13.0888 102.249 13.0756 102.244 13.0633 102.239 13.0509 102.232 13.0397 102.222 13.0302 102.213 13.0207 102.202 13.0132 102.19 13.0081 102.178 13.0028 102.165 13.0003 102.151 13.0003Z" fill="#4B4B4B" fill-rule="nonzero" fill-opacity="1" transform="matrix(1.00031 0 0 1 590 340)"/><path d="M71.872 13.6219 71.872 15.4318C71.872 15.4851 71.8931 15.5363 71.9308 15.574 71.9686 15.6117 72.0197 15.633 72.073 15.633L78.295 15.633C78.3206 15.633 78.3452 15.6432 78.3633 15.6613 78.3815 15.6795 78.3917 15.7041 78.3917 15.7297L78.3917 17.7663C78.392 17.7792 78.3897 17.7921 78.385 17.8041 78.3803 17.8162 78.3733 17.8272 78.3643 17.8364 78.3552 17.8457 78.3444 17.853 78.3326 17.8581 78.3206 17.8631 78.3079 17.8656 78.295 17.8656L72.073 17.8656C72.0197 17.8656 71.9686 17.8868 71.9308 17.9245 71.8931 17.9622 71.872 18.0134 71.872 18.0667L71.872 24.1307C71.872 24.1571 71.8772 24.1833 71.8873 24.2076 71.8974 24.2321 71.9123 24.2542 71.9308 24.2729 71.9495 24.2916 71.9718 24.3065 71.9961 24.3165 72.0206 24.3267 72.0467 24.3318 72.073 24.3318L78.295 24.3318C78.3208 24.3325 78.3454 24.3432 78.3636 24.3618 78.3816 24.3804 78.3917 24.4052 78.3917 24.4312L78.3917 27.8119C78.392 27.8382 78.3872 27.8643 78.3773 27.8887 78.3675 27.9131 78.3529 27.9353 78.3344 27.954 78.316 27.9727 78.294 27.9875 78.2698 27.9977 78.2454 28.0078 78.2194 28.0131 78.1931 28.0131L73.6108 28.0131C73.5657 28.0129 73.5219 28.0278 73.4863 28.0555 73.4507 28.0832 73.4255 28.122 73.4147 28.1657L72.9692 30.1005C72.9658 30.1151 72.9656 30.1303 72.9689 30.1449 72.9721 30.1596 72.9786 30.1734 72.988 30.1851 72.9973 30.1969 73.0092 30.2064 73.0226 30.2129 73.0361 30.2194 73.0509 30.2227 73.0659 30.2227L79.9981 30.2227C80.1574 30.2227 80.3102 30.1595 80.4229 30.0468 80.5356 29.9342 80.5989 29.7813 80.5989 29.622L80.5989 22.3156C80.5989 22.2623 80.5777 22.2111 80.54 22.1734 80.5023 22.1357 80.4511 22.1144 80.3978 22.1144L74.181 22.1144C74.1679 22.1149 74.1548 22.1125 74.1426 22.1076 74.1303 22.1028 74.1193 22.0954 74.1101 22.0862 74.1008 22.0769 74.0934 22.0658 74.0886 22.0537 74.0837 22.0414 74.0813 22.0283 74.0817 22.0152L74.0817 20.167C74.0817 20.1407 74.0922 20.1154 74.1108 20.0968 74.1294 20.0782 74.1547 20.0677 74.181 20.0677L80.4028 20.0677C80.4562 20.0677 80.5073 20.0465 80.545 20.0087 80.5827 19.971 80.604 19.92 80.604 19.8665L80.604 13.6219C80.6033 13.5687 80.5819 13.5179 80.5444 13.4803 80.5068 13.4428 80.456 13.4213 80.4028 13.4207L72.073 13.4207C72.0197 13.4207 71.9686 13.4419 71.9308 13.4797 71.8931 13.5174 71.872 13.5684 71.872 13.6219Z" fill="#4B4B4B" fill-rule="nonzero" fill-opacity="1" transform="matrix(1.00031 0 0 1 590 340)"/><path d="M98.0883 15.9227 91.1944 15.9227C91.1681 15.9227 91.1428 15.9331 91.1242 15.9517 91.1056 15.9704 91.0951 15.9956 91.0951 16.0219L91.0951 17.2362C91.0947 17.2494 91.097 17.2625 91.102 17.2747 91.1068 17.2869 91.1141 17.298 91.1234 17.3073 91.1327 17.3166 91.1437 17.3239 91.156 17.3288 91.1682 17.3336 91.1812 17.3359 91.1944 17.3356L96.3139 17.3356C96.3271 17.3352 96.3401 17.3375 96.3523 17.3424 96.3646 17.3473 96.3756 17.3546 96.3849 17.3639 96.3942 17.3732 96.4015 17.3842 96.4063 17.3964 96.4112 17.4087 96.4136 17.4217 96.4132 17.4349L96.4132 20.1614C96.4132 20.1877 96.4027 20.2129 96.3841 20.2316 96.3655 20.2502 96.3402 20.2607 96.3139 20.2607L95.7207 20.2607C95.6984 20.2607 95.6766 20.2681 95.6591 20.282 95.6416 20.2959 95.6292 20.3153 95.6241 20.3371L95.2905 21.7779C95.2871 21.7925 95.287 21.8077 95.2902 21.8223 95.2935 21.837 95.3 21.8508 95.3093 21.8625 95.3186 21.8743 95.3305 21.8838 95.3439 21.8903 95.3575 21.8968 95.3722 21.9001 95.3873 21.9001L97.4723 21.9001C97.6883 21.9001 97.8955 21.8143 98.0483 21.6616 98.201 21.5088 98.2869 21.3015 98.2869 21.0855L98.2869 16.1238C98.2873 16.0975 98.2823 16.0714 98.2725 16.047 98.2627 16.0227 98.2481 16.0004 98.2297 15.9817 98.2112 15.963 98.1892 15.9482 98.1649 15.938 98.1407 15.9279 98.1146 15.9227 98.0883 15.9227Z" fill="#4B4B4B" fill-rule="nonzero" fill-opacity="1" transform="matrix(1.00031 0 0 1 590 340)"/><path d="M97.0063 23.0488 97.0063 28.7742C97.0063 28.8005 97.0011 28.8265 96.991 28.8508 96.9808 28.8751 96.966 28.8971 96.9473 28.9155 96.9286 28.934 96.9063 28.9486 96.882 28.9584 96.8576 28.9682 96.8316 28.9731 96.8053 28.9728L95.4177 28.9728C95.3731 28.9725 95.3295 28.987 95.294 29.0143 95.2586 29.0415 95.2331 29.0798 95.2218 29.123L94.8755 30.3959C94.8712 30.4112 94.8704 30.4272 94.8734 30.4428 94.8764 30.4584 94.8829 30.4732 94.8925 30.4858 94.9022 30.4984 94.9146 30.5085 94.929 30.5155 94.9433 30.5224 94.959 30.5259 94.9748 30.5257L98.5694 30.5257C98.7811 30.5251 98.9836 30.4406 99.133 30.2907 99.2824 30.1409 99.3663 29.9379 99.3663 29.7264L99.3663 23.0488 97.0063 23.0488Z" fill="#4B4B4B" fill-rule="nonzero" fill-opacity="1" transform="matrix(1.00031 0 0 1 590 340)"/><path d="M90.2728 18.0207 90.2728 20.8362C90.2728 20.8625 90.278 20.8886 90.2882 20.9128 90.2982 20.9371 90.3132 20.9591 90.3319 20.9776 90.3505 20.996 90.3727 21.0106 90.3971 21.0204 90.4215 21.0302 90.4476 21.0351 90.4738 21.0348L94.9569 21.0348C95.0096 21.0348 95.0602 21.0139 95.0973 20.9766 95.1346 20.9394 95.1556 20.8889 95.1556 20.8362L95.1556 18.0207C95.1559 17.9943 95.151 17.9682 95.1411 17.9438 95.1313 17.9195 95.1168 17.8973 95.0983 17.8786 95.0798 17.8599 95.0578 17.845 95.0336 17.8349 95.0093 17.8247 94.9832 17.8195 94.9569 17.8195L90.4738 17.8195C90.4205 17.8195 90.3694 17.8406 90.3316 17.8784 90.2939 17.9161 90.2728 17.9672 90.2728 18.0207ZM93.4728 19.9045 91.9453 19.9045C91.9192 19.9038 91.8943 19.8931 91.8758 19.8747 91.8573 19.8562 91.8467 19.8313 91.8461 19.8052L91.8461 19.039C91.8467 19.0128 91.8573 18.9879 91.8758 18.9694 91.8943 18.9509 91.9192 18.9402 91.9453 18.9396L93.4728 18.9396C93.4991 18.9396 93.5243 18.9501 93.543 18.9688 93.5616 18.9874 93.5721 19.0126 93.5721 19.039L93.5721 19.8026C93.5724 19.8159 93.5701 19.829 93.5653 19.8414 93.5604 19.8537 93.5532 19.865 93.5439 19.8745 93.5347 19.884 93.5236 19.8915 93.5114 19.8967 93.4991 19.9018 93.4861 19.9045 93.4728 19.9045Z" fill="#4B4B4B" fill-rule="nonzero" fill-opacity="1" transform="matrix(1.00031 0 0 1 590 340)"/><path d="M106.113 23.6749 106.113 22.4225C106.113 22.3677 106.068 22.3231 106.013 22.3231L90.3593 22.3231C90.3045 22.3231 90.2601 22.3677 90.2601 22.4225L90.2601 23.6749C90.2601 23.7298 90.3045 23.7742 90.3593 23.7742L106.013 23.7742C106.068 23.7742 106.113 23.7298 106.113 23.6749Z" fill="#4B4B4B" fill-rule="nonzero" fill-opacity="1" transform="matrix(1.00031 0 0 1 590 340)"/><path d="M105.868 25.8363 105.868 24.5837C105.868 24.5289 105.824 24.4845 105.769 24.4845L90.6063 24.4845C90.5514 24.4845 90.507 24.5289 90.507 24.5837L90.507 25.8363C90.507 25.8911 90.5514 25.9356 90.6063 25.9356L105.769 25.9356C105.824 25.9356 105.868 25.8911 105.868 25.8363Z" fill="#4B4B4B" fill-rule="nonzero" fill-opacity="1" transform="matrix(1.00031 0 0 1 590 340)"/><path d="M106.69 27.9824 106.69 26.7299C106.69 26.6751 106.646 26.6307 106.591 26.6307L89.784 26.6307C89.7292 26.6307 89.6847 26.6751 89.6847 26.7299L89.6847 27.9824C89.6847 28.0373 89.7292 28.0818 89.784 28.0818L106.591 28.0818C106.646 28.0818 106.69 28.0373 106.69 27.9824Z" fill="#4B4B4B" fill-rule="nonzero" fill-opacity="1" transform="matrix(1.00031 0 0 1 590 340)"/><path d="M40.4522 19.5734C40.5413 24.6395 36.1499 28.0279 33.5327 28.2036 33.4814 28.2055 33.4328 28.2273 33.3973 28.2644 33.3617 28.3013 33.3418 28.3507 33.3418 28.4021L33.3418 30.2401C33.3418 30.2669 33.3473 30.2934 33.3576 30.3179 33.3681 30.3425 33.3835 30.3648 33.4027 30.3833 33.4219 30.4019 33.4447 30.4163 33.4697 30.4258 33.4947 30.4353 33.5213 30.4397 33.548 30.4388 35.5006 30.3216 37.7155 29.2677 39.3905 27.6384 40.8976 26.1797 42.7001 23.5957 42.7001 19.5708L42.7001 12.8806C42.7001 12.8279 42.6792 12.7774 42.6419 12.7402 42.6047 12.7029 42.5542 12.682 42.5015 12.682L40.6584 12.682C40.6057 12.682 40.5552 12.7029 40.5179 12.7402 40.4807 12.7774 40.4598 12.8279 40.4598 12.8806L40.4522 19.5734Z" fill="#4B4B4B" fill-rule="nonzero" fill-opacity="1" transform="matrix(1.00031 0 0 1 590 340)"/><path d="M42.6874 19.5734C42.5957 24.6395 46.9973 28.0279 49.6042 28.2036 49.6558 28.2055 49.7046 28.2272 49.7406 28.2641 49.7767 28.3011 49.7971 28.3505 49.7977 28.4021L49.7977 30.2401C49.7977 30.2671 49.7922 30.2938 49.7817 30.3186 49.7711 30.3434 49.7555 30.3657 49.7359 30.3843 49.7165 30.4029 49.6933 30.4173 49.6681 30.4267 49.6428 30.436 49.6159 30.4401 49.5889 30.4388 47.6389 30.3217 45.4215 29.2677 43.749 27.6384 42.2419 26.1797 40.4395 23.5957 40.4395 19.5709L40.4395 12.8806C40.4395 12.8279 40.4604 12.7774 40.4976 12.7402 40.5349 12.7029 40.5854 12.682 40.638 12.682L42.4812 12.682C42.5075 12.6817 42.5336 12.6866 42.5579 12.6964 42.5824 12.7062 42.6045 12.7208 42.6232 12.7393 42.642 12.7577 42.6568 12.7797 42.6669 12.804 42.677 12.8283 42.6823 12.8543 42.6823 12.8806L42.6874 19.5734Z" fill="#4B4B4B" fill-rule="nonzero" fill-opacity="1" transform="matrix(1.00031 0 0 1 590 340)"/><path d="M21.9139 16.3485 18.4237 30.1211C18.4151 30.1589 18.4153 30.1982 18.4242 30.2358 18.4332 30.2735 18.4506 30.3086 18.4751 30.3386 18.4996 30.3686 18.5307 30.3925 18.5659 30.4086 18.6011 30.4248 18.6395 30.4327 18.6783 30.4317L25.6562 30.4317C25.6949 30.4327 25.7333 30.4248 25.7685 30.4086 25.8037 30.3925 25.8348 30.3686 25.8593 30.3386 25.8839 30.3086 25.9013 30.2735 25.9101 30.2358 25.9191 30.1982 25.9193 30.1589 25.9108 30.1211L22.4027 16.3485C22.3873 16.2956 22.3552 16.2493 22.311 16.2161 22.267 16.1831 22.2134 16.1653 22.1582 16.1653 22.1032 16.1653 22.0496 16.1831 22.0056 16.2161 21.9615 16.2493 21.9293 16.2956 21.9139 16.3485Z" fill="#00E5E5" fill-rule="nonzero" fill-opacity="1" transform="matrix(1.00031 0 0 1 590 340)"/><path d="M2.70359 19.4692-5.64475e-06 30.1207C-0.00853667 30.1584-0.00833811 30.1976 0.000574917 30.2353 0.00948794 30.2731 0.0268805 30.3082 0.0514289 30.3381 0.0759773 30.368 0.107034 30.3921 0.142237 30.4082 0.177438 30.4243 0.215858 30.4322 0.25457 30.4313L5.64141 30.4313C5.68013 30.4322 5.71855 30.4243 5.75374 30.4082 5.78894 30.3921 5.82 30.368 5.84455 30.3381 5.86909 30.3082 5.88649 30.2731 5.89541 30.2353 5.90432 30.1976 5.90451 30.1584 5.89599 30.1207L3.18984 19.4692C3.17372 19.4173 3.14143 19.372 3.09769 19.3397 3.05395 19.3074 3.00104 19.2901 2.94672 19.2901 2.89239 19.2901 2.83948 19.3074 2.79574 19.3397 2.752 19.372 2.71971 19.4173 2.70359 19.4692Z" fill="#00E5E5" fill-rule="nonzero" fill-opacity="1" transform="matrix(1.00031 0 0 1 590 340)"/><path d="M7.47178 10.6502 2.54572 30.1202C2.53742 30.1569 2.53738 30.1951 2.54559 30.2318 2.55379 30.2686 2.57005 30.303 2.59318 30.3327 2.61631 30.3624 2.64575 30.3866 2.67936 30.4036 2.71297 30.4205 2.74993 30.4298 2.78757 30.4307L12.6422 30.4307C12.6809 30.4317 12.7194 30.4238 12.7545 30.4077 12.7898 30.3915 12.8208 30.3676 12.8453 30.3377 12.8699 30.3078 12.8873 30.2725 12.8962 30.2349 12.9052 30.1972 12.9053 30.158 12.8968 30.1202L7.95801 10.6502C7.9419 10.5983 7.90962 10.5529 7.86588 10.5207 7.82212 10.4885 7.76923 10.4711 7.7149 10.4711 7.66057 10.4711 7.60767 10.4885 7.56392 10.5207 7.52017 10.5529 7.48789 10.5983 7.47178 10.6502Z" fill="#006EFF" fill-rule="nonzero" fill-opacity="1" transform="matrix(1.00031 0 0 1 590 340)"/><path d="M15.9696 4.45892C15.9534 4.40703 15.9212 4.36167 15.8775 4.32945 15.8337 4.29723 15.7808 4.27985 15.7265 4.27985 15.6721 4.27985 15.6192 4.29723 15.5755 4.32945 15.5317 4.36167 15.4995 4.40703 15.4833 4.45892L8.74978 30.1203C8.74126 30.158 8.74145 30.1972 8.75036 30.2349 8.75928 30.2726 8.77667 30.3078 8.80122 30.3377 8.82577 30.3676 8.85682 30.3916 8.89203 30.4078 8.92723 30.4239 8.96565 30.4317 9.00436 30.4309L22.4612 30.4309C22.5 30.4317 22.5384 30.4239 22.5736 30.4078 22.6088 30.3916 22.6399 30.3676 22.6645 30.3377 22.6889 30.3078 22.7063 30.2726 22.7153 30.2349 22.7242 30.1972 22.7244 30.158 22.7158 30.1203L15.9696 4.45892Z" fill="#006EFF" fill-rule="nonzero" fill-opacity="1" transform="matrix(1.00031 0 0 1 590 340)"/><path d="M11.0232 13.4819 6.75137 30.1185C6.74238 30.1564 6.74224 30.1959 6.75094 30.2339 6.75965 30.2719 6.77696 30.3075 6.80157 30.3377 6.82616 30.3679 6.85739 30.3922 6.89282 30.4084 6.92826 30.4247 6.96696 30.4327 7.00594 30.4316L15.5292 30.4316C15.5682 30.4327 15.6068 30.4247 15.6423 30.4084 15.6777 30.3922 15.709 30.3679 15.7335 30.3377 15.7581 30.3075 15.7754 30.2719 15.7842 30.2339 15.7928 30.1959 15.7927 30.1564 15.7838 30.1185L11.5094 13.4819C11.4933 13.43 11.461 13.3847 11.4172 13.3524 11.3735 13.3201 11.3206 13.3028 11.2663 13.3028 11.212 13.3028 11.1591 13.3201 11.1153 13.3524 11.0716 13.3847 11.0393 13.43 11.0232 13.4819Z" fill="#00E5E5" fill-rule="nonzero" fill-opacity="1" transform="matrix(1.00031 0 0 1 590 340)"/></g></g></g></g></g></g></svg>